<mxfile host="app.diagrams.net" modified="2021-03-02T14:38:51.429Z" agent="5.0 (Macintosh; Intel Mac OS X 10_15_6) AppleWebKit/605.1.15 (KHTML, like Gecko) Version/14.0.3 Safari/605.1.15" etag="ID9vyN7lTXtR1ihSa-iT" version="14.4.3" type="github">
  <diagram id="ANweIr6_wBm_h67aYKLZ" name="Page-1">
    <mxGraphModel dx="1146" dy="800" grid="1" gridSize="10" guides="1" tooltips="1" connect="1" arrows="1" fold="1" page="1" pageScale="1" pageWidth="827" pageHeight="1169" math="0" shadow="0">
      <root>
        <mxCell id="0" />
        <mxCell id="1" parent="0" />
        <mxCell id="nrkVSU_FDHu-kxWal9PK-6" style="edgeStyle=orthogonalEdgeStyle;rounded=0;orthogonalLoop=1;jettySize=auto;html=1;entryX=1;entryY=0;entryDx=0;entryDy=0;" edge="1" parent="1" source="nrkVSU_FDHu-kxWal9PK-1" target="nrkVSU_FDHu-kxWal9PK-2">
          <mxGeometry relative="1" as="geometry">
            <Array as="points">
              <mxPoint x="470" y="145" />
              <mxPoint x="140" y="145" />
            </Array>
          </mxGeometry>
        </mxCell>
        <mxCell id="nrkVSU_FDHu-kxWal9PK-7" value="- Hente kampstatus&lt;br&gt;&amp;nbsp;(kamp aktiv, temp, luftfuktighet, is-bilde)" style="edgeLabel;html=1;align=center;verticalAlign=middle;resizable=0;points=[];" vertex="1" connectable="0" parent="nrkVSU_FDHu-kxWal9PK-6">
          <mxGeometry x="-0.0685" relative="1" as="geometry">
            <mxPoint as="offset" />
          </mxGeometry>
        </mxCell>
        <mxCell id="nrkVSU_FDHu-kxWal9PK-10" style="edgeStyle=orthogonalEdgeStyle;rounded=0;orthogonalLoop=1;jettySize=auto;html=1;entryX=0;entryY=0.5;entryDx=0;entryDy=0;" edge="1" parent="1" source="nrkVSU_FDHu-kxWal9PK-1" target="nrkVSU_FDHu-kxWal9PK-8">
          <mxGeometry relative="1" as="geometry" />
        </mxCell>
        <mxCell id="nrkVSU_FDHu-kxWal9PK-1" value="&lt;b&gt;&lt;font style=&quot;font-size: 13px&quot;&gt;Kamp klasse (nettside-grensesnitt i javascript node)&lt;/font&gt;&lt;/b&gt;" style="rounded=0;whiteSpace=wrap;html=1;" vertex="1" parent="1">
          <mxGeometry x="370" y="160" width="200" height="70" as="geometry" />
        </mxCell>
        <mxCell id="nrkVSU_FDHu-kxWal9PK-3" style="edgeStyle=orthogonalEdgeStyle;rounded=0;orthogonalLoop=1;jettySize=auto;html=1;entryX=0;entryY=0.5;entryDx=0;entryDy=0;" edge="1" parent="1" source="nrkVSU_FDHu-kxWal9PK-2" target="nrkVSU_FDHu-kxWal9PK-1">
          <mxGeometry relative="1" as="geometry">
            <Array as="points">
              <mxPoint x="80" y="250" />
              <mxPoint x="340" y="250" />
              <mxPoint x="340" y="195" />
            </Array>
          </mxGeometry>
        </mxCell>
        <mxCell id="nrkVSU_FDHu-kxWal9PK-4" value="- Start ny kamp med navn&lt;br&gt;- Avslutt kamp" style="edgeLabel;html=1;align=center;verticalAlign=middle;resizable=0;points=[];" vertex="1" connectable="0" parent="nrkVSU_FDHu-kxWal9PK-3">
          <mxGeometry x="-0.1652" y="1" relative="1" as="geometry">
            <mxPoint as="offset" />
          </mxGeometry>
        </mxCell>
        <mxCell id="nrkVSU_FDHu-kxWal9PK-2" value="Nettside" style="whiteSpace=wrap;html=1;" vertex="1" parent="1">
          <mxGeometry x="20" y="165" width="120" height="60" as="geometry" />
        </mxCell>
        <mxCell id="nrkVSU_FDHu-kxWal9PK-11" style="edgeStyle=orthogonalEdgeStyle;rounded=0;orthogonalLoop=1;jettySize=auto;html=1;entryX=1;entryY=0;entryDx=0;entryDy=0;" edge="1" parent="1" source="nrkVSU_FDHu-kxWal9PK-8" target="nrkVSU_FDHu-kxWal9PK-1">
          <mxGeometry relative="1" as="geometry">
            <Array as="points">
              <mxPoint x="610" y="190" />
              <mxPoint x="610" y="140" />
              <mxPoint x="570" y="140" />
            </Array>
          </mxGeometry>
        </mxCell>
        <mxCell id="nrkVSU_FDHu-kxWal9PK-16" style="edgeStyle=orthogonalEdgeStyle;rounded=0;orthogonalLoop=1;jettySize=auto;html=1;exitX=0.5;exitY=1;exitDx=0;exitDy=0;entryX=1;entryY=0;entryDx=0;entryDy=0;" edge="1" parent="1" source="nrkVSU_FDHu-kxWal9PK-8" target="nrkVSU_FDHu-kxWal9PK-13">
          <mxGeometry relative="1" as="geometry" />
        </mxCell>
        <mxCell id="nrkVSU_FDHu-kxWal9PK-29" style="edgeStyle=orthogonalEdgeStyle;rounded=0;orthogonalLoop=1;jettySize=auto;html=1;entryX=1;entryY=1;entryDx=0;entryDy=0;" edge="1" parent="1" source="nrkVSU_FDHu-kxWal9PK-8" target="nrkVSU_FDHu-kxWal9PK-26">
          <mxGeometry relative="1" as="geometry">
            <Array as="points">
              <mxPoint x="800" y="195" />
              <mxPoint x="800" y="530" />
              <mxPoint x="570" y="530" />
            </Array>
          </mxGeometry>
        </mxCell>
        <mxCell id="nrkVSU_FDHu-kxWal9PK-30" style="edgeStyle=orthogonalEdgeStyle;rounded=0;orthogonalLoop=1;jettySize=auto;html=1;exitX=1;exitY=0.5;exitDx=0;exitDy=0;" edge="1" parent="1" source="nrkVSU_FDHu-kxWal9PK-26" target="nrkVSU_FDHu-kxWal9PK-8">
          <mxGeometry relative="1" as="geometry">
            <Array as="points">
              <mxPoint x="780" y="480" />
              <mxPoint x="780" y="195" />
            </Array>
          </mxGeometry>
        </mxCell>
        <mxCell id="nrkVSU_FDHu-kxWal9PK-8" value="&lt;b&gt;&lt;font style=&quot;font-size: 15px&quot;&gt;Database&lt;/font&gt;&lt;/b&gt;" style="ellipse;whiteSpace=wrap;html=1;" vertex="1" parent="1">
          <mxGeometry x="650" y="155" width="120" height="80" as="geometry" />
        </mxCell>
        <mxCell id="nrkVSU_FDHu-kxWal9PK-15" style="edgeStyle=orthogonalEdgeStyle;rounded=0;orthogonalLoop=1;jettySize=auto;html=1;entryX=0.5;entryY=1;entryDx=0;entryDy=0;" edge="1" parent="1" source="nrkVSU_FDHu-kxWal9PK-13" target="nrkVSU_FDHu-kxWal9PK-8">
          <mxGeometry relative="1" as="geometry" />
        </mxCell>
        <mxCell id="nrkVSU_FDHu-kxWal9PK-13" value="&lt;font style=&quot;font-size: 14px&quot;&gt;&lt;b&gt;Kampklasse (kamera-grensesnitt i python)&lt;br&gt;&lt;/b&gt;&lt;span style=&quot;font-size: 11px&quot;&gt;Klasse som h책ndterer grensesnitt til database&lt;/span&gt;&lt;b&gt;&lt;br&gt;&lt;/b&gt;&lt;/font&gt;" style="rounded=0;whiteSpace=wrap;html=1;" vertex="1" parent="1">
          <mxGeometry x="375" y="360" width="190" height="70" as="geometry" />
        </mxCell>
        <mxCell id="nrkVSU_FDHu-kxWal9PK-17" value="" style="rounded=0;whiteSpace=wrap;html=1;dashed=1;fillColor=none;" vertex="1" parent="1">
          <mxGeometry x="300" y="120" width="510" height="475" as="geometry" />
        </mxCell>
        <mxCell id="nrkVSU_FDHu-kxWal9PK-18" value="&lt;b&gt;&lt;font style=&quot;font-size: 15px&quot;&gt;Raspberry pi master&lt;/font&gt;&lt;/b&gt;" style="text;html=1;align=center;verticalAlign=middle;resizable=0;points=[];autosize=1;" vertex="1" parent="1">
          <mxGeometry x="475" y="100" width="160" height="20" as="geometry" />
        </mxCell>
        <mxCell id="nrkVSU_FDHu-kxWal9PK-19" value="" style="rounded=0;whiteSpace=wrap;html=1;dashed=1;fillColor=none;" vertex="1" parent="1">
          <mxGeometry x="370" y="650" width="420" height="170" as="geometry" />
        </mxCell>
        <mxCell id="nrkVSU_FDHu-kxWal9PK-21" style="edgeStyle=orthogonalEdgeStyle;rounded=0;orthogonalLoop=1;jettySize=auto;html=1;entryX=0;entryY=0.5;entryDx=0;entryDy=0;" edge="1" parent="1" source="nrkVSU_FDHu-kxWal9PK-20" target="nrkVSU_FDHu-kxWal9PK-13">
          <mxGeometry relative="1" as="geometry" />
        </mxCell>
        <mxCell id="nrkVSU_FDHu-kxWal9PK-20" value="Kamera (m책ling av is)" style="rounded=0;whiteSpace=wrap;html=1;" vertex="1" parent="1">
          <mxGeometry x="50" y="365" width="140" height="60" as="geometry" />
        </mxCell>
        <mxCell id="nrkVSU_FDHu-kxWal9PK-22" value="&lt;b&gt;&lt;font&gt;&lt;span style=&quot;font-size: 15px&quot;&gt;Raspberry&amp;nbsp;Pi slave&lt;br&gt;&lt;/span&gt;&lt;/font&gt;&lt;/b&gt;" style="text;html=1;align=center;verticalAlign=middle;resizable=0;points=[];autosize=1;" vertex="1" parent="1">
          <mxGeometry x="580" y="630" width="150" height="20" as="geometry" />
        </mxCell>
        <mxCell id="nrkVSU_FDHu-kxWal9PK-25" style="edgeStyle=orthogonalEdgeStyle;rounded=0;orthogonalLoop=1;jettySize=auto;html=1;entryX=0;entryY=0.5;entryDx=0;entryDy=0;" edge="1" parent="1" source="nrkVSU_FDHu-kxWal9PK-23" target="nrkVSU_FDHu-kxWal9PK-24">
          <mxGeometry relative="1" as="geometry" />
        </mxCell>
        <mxCell id="nrkVSU_FDHu-kxWal9PK-23" value="Temperatursensor/ luftfuktughetssensor" style="rounded=0;whiteSpace=wrap;html=1;" vertex="1" parent="1">
          <mxGeometry x="150" y="715" width="120" height="60" as="geometry" />
        </mxCell>
        <mxCell id="nrkVSU_FDHu-kxWal9PK-31" style="edgeStyle=orthogonalEdgeStyle;rounded=0;orthogonalLoop=1;jettySize=auto;html=1;entryX=0.5;entryY=1;entryDx=0;entryDy=0;" edge="1" parent="1" source="nrkVSU_FDHu-kxWal9PK-24" target="nrkVSU_FDHu-kxWal9PK-26">
          <mxGeometry relative="1" as="geometry" />
        </mxCell>
        <mxCell id="nrkVSU_FDHu-kxWal9PK-24" value="Kode for 책 innhente data fra sensor.&lt;br&gt;Sende data til annen rpi med bluetooth" style="rounded=0;whiteSpace=wrap;html=1;fillColor=none;" vertex="1" parent="1">
          <mxGeometry x="490" y="710" width="150" height="70" as="geometry" />
        </mxCell>
        <mxCell id="nrkVSU_FDHu-kxWal9PK-26" value="&lt;font&gt;&lt;span style=&quot;font-weight: bold ; font-size: 14px&quot;&gt;Sensorklasse (sensor-grensesnitt i python)&lt;/span&gt;&lt;br&gt;&lt;font style=&quot;font-size: 11px&quot;&gt;Klasse som h책ndterer grensesnitt til database&lt;/font&gt;&lt;br&gt;&lt;/font&gt;" style="rounded=0;whiteSpace=wrap;html=1;fillColor=none;" vertex="1" parent="1">
          <mxGeometry x="375" y="450" width="195" height="60" as="geometry" />
        </mxCell>
      </root>
    </mxGraphModel>
  </diagram>
</mxfile>
